<mxfile host="app.diagrams.net" modified="2023-09-21T09:37:09.855Z" agent="Mozilla/5.0 (Windows NT 10.0; Win64; x64) AppleWebKit/537.36 (KHTML, like Gecko) Chrome/116.0.0.0 Safari/537.36" etag="3WVMdUXN6bl2-LisYxW-" version="21.8.0" type="github">
  <diagram name="第 1 页" id="pf6NniyTJEgmtLcxmzPc">
    <mxGraphModel dx="1562" dy="830" grid="1" gridSize="10" guides="1" tooltips="1" connect="1" arrows="1" fold="1" page="1" pageScale="1" pageWidth="827" pageHeight="1169" math="0" shadow="0">
      <root>
        <mxCell id="0" />
        <mxCell id="1" parent="0" />
        <mxCell id="w3lJLGgpDl_0jGNf6NBB-2" value="" style="shape=ext;double=1;rounded=1;whiteSpace=wrap;html=1;fillColor=#d5e8d4;strokeColor=#82b366;" vertex="1" parent="1">
          <mxGeometry x="80" y="80" width="180" height="590" as="geometry" />
        </mxCell>
        <mxCell id="w3lJLGgpDl_0jGNf6NBB-3" value="" style="shape=ext;double=1;rounded=1;whiteSpace=wrap;html=1;fillColor=#d5e8d4;strokeColor=#82b366;" vertex="1" parent="1">
          <mxGeometry x="610" y="80" width="180" height="590" as="geometry" />
        </mxCell>
      </root>
    </mxGraphModel>
  </diagram>
</mxfile>
